<svg width="1440" height="574" viewBox="0 0 1440 574" fill="none" xmlns="http://www.w3.org/2000/svg">
<mask id="mask0_1269_8241" style="mask-type:luminance" maskUnits="userSpaceOnUse" x="792" y="11" width="253" height="233">
<path d="M1038.18 243.988L796.758 199.357H796.776L1038.2 243.968L1038.18 243.988ZM1044.61 239.489V239.47L1037.45 186.395L1044.61 239.489ZM959.817 230.749L795.522 200.423L795.564 200.364L959.817 230.749ZM793.582 195.51L792.537 194.602L1006.81 11.4215L1007.79 12.2347L793.582 195.51Z" fill="white"/>
</mask>
<g mask="url(#mask0_1269_8241)">
<path d="M1038.18 243.988L796.758 199.357H796.776L1038.2 243.968L1038.18 243.988ZM1044.61 239.489V239.47L1037.45 186.395L1044.61 239.489ZM959.817 230.749L795.522 200.423L795.564 200.364L959.817 230.749ZM793.582 195.51L792.537 194.602L1006.81 11.4215L1007.79 12.2347L793.582 195.51Z" fill="#00BBC2" fill-opacity="0.17"/>
</g>
<mask id="mask1_1269_8241" style="mask-type:luminance" maskUnits="userSpaceOnUse" x="1012" y="10" width="243" height="236">
<path d="M1051.24 245.033L1051.14 244.974L1113.76 231.123L1051.24 245.033ZM1043.17 239.785L1012.76 13.9464L1014.09 12.8048L1037.46 186.394L1044.61 239.469L1044.08 239.035L1043.17 239.785ZM1157.37 221.416L1157.33 221.376L1252.62 200.185L1252.64 200.205L1157.37 221.416ZM1156.19 220.409L1156.16 220.389L1184.22 214.155L1156.19 220.409ZM1253.32 193.99L1016.33 10.8905L1017.33 10.0419L1254.29 193.161L1253.32 193.99Z" fill="white"/>
</mask>
<g mask="url(#mask1_1269_8241)">
<path d="M1051.24 245.033L1051.14 244.974L1113.76 231.123L1051.24 245.033ZM1043.17 239.785L1012.76 13.9464L1014.09 12.8048L1037.46 186.394L1044.61 239.469L1044.08 239.035L1043.17 239.785ZM1157.37 221.416L1157.33 221.376L1252.62 200.185L1252.64 200.205L1157.37 221.416ZM1156.19 220.409L1156.16 220.389L1184.22 214.155L1156.19 220.409ZM1253.32 193.99L1016.33 10.8905L1017.33 10.0419L1254.29 193.161L1253.32 193.99Z" fill="#00BBC2" fill-opacity="0.17"/>
</g>
<mask id="mask2_1269_8241" style="mask-type:luminance" maskUnits="userSpaceOnUse" x="1264" y="199" width="91" height="19">
<path d="M1354.76 217.407L1264.6 199.63L1264.63 199.61L1354.76 217.407Z" fill="white"/>
</mask>
<g mask="url(#mask2_1269_8241)">
<path d="M1354.76 217.407L1264.6 199.63L1264.63 199.61L1354.76 217.407Z" fill="#00BBC2" fill-opacity="0.17"/>
</g>
<mask id="mask3_1269_8241" style="mask-type:luminance" maskUnits="userSpaceOnUse" x="1264" y="96" width="216" height="145">
<path d="M1479.16 240.695L1450.92 235.131L1450.94 235.111L1479.16 240.695ZM1409.24 226.943L1265.82 198.629L1265.86 198.57L1409.24 226.943ZM1265.56 195.946L1264.53 195.078L1479.49 96.089V97.4528L1265.56 195.946Z" fill="white"/>
</mask>
<g mask="url(#mask3_1269_8241)">
<path d="M1479.16 240.695L1450.92 235.131L1450.94 235.111L1479.16 240.695ZM1409.24 226.943L1265.82 198.629L1265.86 198.57L1409.24 226.943ZM1265.56 195.946L1264.53 195.078L1479.49 96.089V97.4528L1265.56 195.946Z" fill="#00BBC2" fill-opacity="0.17"/>
</g>
<mask id="mask4_1269_8241" style="mask-type:luminance" maskUnits="userSpaceOnUse" x="1189" y="314" width="163" height="130">
<path d="M1195.78 443.482L1195.71 443.423L1304.65 420.043L1195.78 443.482ZM1194.59 442.496L1194.57 442.476L1234.5 433.894L1194.59 442.496ZM1189.32 438.057H1189.3L1213.76 393.525L1189.32 438.057ZM1350.71 403.331L1264.69 315.234H1264.72L1350.73 403.311L1350.71 403.331ZM1351.74 402.482L1265.7 314.405V314.385L1351.75 402.443L1351.74 402.482Z" fill="white"/>
</mask>
<g mask="url(#mask4_1269_8241)">
<path d="M1195.78 443.482L1195.71 443.423L1304.65 420.043L1195.78 443.482ZM1194.59 442.496L1194.57 442.476L1234.5 433.894L1194.59 442.496ZM1189.32 438.057H1189.3L1213.76 393.525L1189.32 438.057ZM1350.71 403.331L1264.69 315.234H1264.72L1350.73 403.311L1350.71 403.331ZM1351.74 402.482L1265.7 314.405V314.385L1351.75 402.443L1351.74 402.482Z" fill="#00BBC2" fill-opacity="0.17"/>
</g>
<mask id="mask5_1269_8241" style="mask-type:luminance" maskUnits="userSpaceOnUse" x="1190" y="409" width="164" height="128">
<path d="M1275.17 536.201L1190.28 450.55L1191.26 449.702L1276.1 535.431L1275.17 536.201ZM1282.52 535.885L1281.44 534.958L1352.8 413.259L1353.78 414.108L1282.52 535.885ZM1195.71 443.428L1194.59 442.5L1234.5 433.898L1348.28 409.372L1349.5 410.418L1304.65 420.047L1195.71 443.428Z" fill="white"/>
</mask>
<g mask="url(#mask5_1269_8241)">
<path d="M1275.17 536.201L1190.28 450.55L1191.26 449.702L1276.1 535.431L1275.17 536.201ZM1282.52 535.885L1281.44 534.958L1352.8 413.259L1353.78 414.108L1282.52 535.885ZM1195.71 443.428L1194.59 442.5L1234.5 433.898L1348.28 409.372L1349.5 410.418L1304.65 420.047L1195.71 443.428Z" fill="#00BBC2" fill-opacity="0.17"/>
</g>
<mask id="mask6_1269_8241" style="mask-type:luminance" maskUnits="userSpaceOnUse" x="122" y="320" width="326" height="161">
<path d="M360.812 480.597L122.213 392.993L122.236 392.974L360.812 480.577V480.597ZM369.511 477.341L369.418 477.243L406.499 408.344L369.511 477.341ZM346.75 474.145L123.262 392.105L123.356 392.026L346.75 474.145ZM122.329 388.791L122.306 388.771L219.323 367.955L122.329 388.791ZM291.525 353.73L447.474 320.247L447.521 320.286L291.525 353.73Z" fill="white"/>
</mask>
<g mask="url(#mask6_1269_8241)">
<path d="M360.812 480.597L122.213 392.993L122.236 392.974L360.812 480.577V480.597ZM369.511 477.341L369.418 477.243L406.499 408.344L369.511 477.341ZM346.75 474.145L123.262 392.105L123.356 392.026L346.75 474.145ZM122.329 388.791L122.306 388.771L219.323 367.955L122.329 388.791ZM291.525 353.73L447.474 320.247L447.521 320.286L291.525 353.73Z" fill="#00BBC2" fill-opacity="0.17"/>
</g>
<mask id="mask7_1269_8241" style="mask-type:luminance" maskUnits="userSpaceOnUse" x="791" y="202" width="257" height="333">
<path d="M982.068 534.952L791.671 203.656L792.722 202.788L983.161 534.044L982.068 534.952ZM988.48 533.512L987.268 532.486L1045.85 357.416L1047.06 358.462L988.48 533.512ZM1042.28 349.958L793.581 202.058V202.038L1042.33 349.899L1042.28 349.958Z" fill="white"/>
</mask>
<g mask="url(#mask7_1269_8241)">
<path d="M982.068 534.952L791.671 203.656L792.722 202.788L983.161 534.044L982.068 534.952ZM988.48 533.512L987.268 532.486L1045.85 357.416L1047.06 358.462L988.48 533.512ZM1042.28 349.958L793.581 202.058V202.038L1042.33 349.899L1042.28 349.958Z" fill="#00BBC2" fill-opacity="0.17"/>
</g>
<mask id="mask8_1269_8241" style="mask-type:luminance" maskUnits="userSpaceOnUse" x="-14" y="152" width="199" height="236">
<path d="M110.155 387.981L-13.0742 332.716V332.696L110.179 387.981H110.155ZM111.205 387.113L-13.0742 331.414V331.354L111.205 387.093V387.113ZM119.251 386.166L119.228 386.146L184.201 156.048L184.27 156.088L119.251 386.166ZM-13.0742 293.688V293.649L180.702 153.069L180.725 153.108L-13.0742 293.688ZM-13.0742 292.17V292.13L179.7 152.24H179.723L-13.0742 292.17Z" fill="white"/>
</mask>
<g mask="url(#mask8_1269_8241)">
<path d="M110.155 387.981L-13.0742 332.716V332.696L110.179 387.981H110.155ZM111.205 387.113L-13.0742 331.414V331.354L111.205 387.093V387.113ZM119.251 386.166L119.228 386.146L184.201 156.048L184.27 156.088L119.251 386.166ZM-13.0742 293.688V293.649L180.702 153.069L180.725 153.108L-13.0742 293.688ZM-13.0742 292.17V292.13L179.7 152.24H179.723L-13.0742 292.17Z" fill="#00BBC2" fill-opacity="0.17"/>
</g>
<mask id="mask9_1269_8241" style="mask-type:luminance" maskUnits="userSpaceOnUse" x="118" y="155" width="334" height="235">
<path d="M123.493 389.793L122.327 388.787L219.32 367.952L446.236 319.237L447.472 320.243L291.522 353.726L123.493 389.793ZM119.225 386.143L118.012 385.098L183.009 155.039L184.198 156.045L119.225 386.143ZM451.203 314.107L362.349 258.546L451.226 314.087L451.203 314.107Z" fill="white"/>
</mask>
<g mask="url(#mask9_1269_8241)">
<path d="M123.493 389.793L122.327 388.787L219.32 367.952L446.236 319.237L447.472 320.243L291.522 353.726L123.493 389.793ZM119.225 386.143L118.012 385.098L183.009 155.039L184.198 156.045L119.225 386.143ZM451.203 314.107L362.349 258.546L451.226 314.087L451.203 314.107Z" fill="#00BBC2" fill-opacity="0.17"/>
</g>
<mask id="mask10_1269_8241" style="mask-type:luminance" maskUnits="userSpaceOnUse" x="1358" y="411" width="76" height="124">
<path d="M1432.05 534.795L1358.1 412.248L1359.15 411.341L1433.12 533.907L1432.05 534.795Z" fill="white"/>
</mask>
<g mask="url(#mask10_1269_8241)">
<path d="M1432.05 534.795L1358.1 412.248L1359.15 411.341L1433.12 533.907L1432.05 534.795Z" fill="#00BBC2" fill-opacity="0.17"/>
</g>
<mask id="mask11_1269_8241" style="mask-type:luminance" maskUnits="userSpaceOnUse" x="1437" y="458" width="43" height="77">
<path d="M1439.07 534.758L1438 533.83L1479.49 458.341V461.163L1439.07 534.758Z" fill="white"/>
</mask>
<g mask="url(#mask11_1269_8241)">
<path d="M1439.07 534.758L1438 533.83L1479.49 458.341V461.163L1439.07 534.758Z" fill="#00BBC2" fill-opacity="0.17"/>
</g>
<mask id="mask12_1269_8241" style="mask-type:luminance" maskUnits="userSpaceOnUse" x="369" y="323" width="84" height="215">
<path d="M439.987 537.384L370.303 485.236L371.26 484.428L441.037 536.457L439.987 537.384ZM446.074 535.806L446.051 535.786L450.808 437.548L446.074 535.806ZM444.722 534.681L444.698 534.662L448.15 463.75L444.722 534.681ZM370.537 478.193L369.51 477.344L406.498 408.347L451.811 323.86L452.954 324.807L439.498 349.826L370.537 478.193Z" fill="white"/>
</mask>
<g mask="url(#mask12_1269_8241)">
<path d="M439.987 537.384L370.303 485.236L371.26 484.428L441.037 536.457L439.987 537.384ZM446.074 535.806L446.051 535.786L450.808 437.548L446.074 535.806ZM444.722 534.681L444.698 534.662L448.15 463.75L444.722 534.681ZM370.537 478.193L369.51 477.344L406.498 408.347L451.811 323.86L452.954 324.807L439.498 349.826L370.537 478.193Z" fill="#00BBC2" fill-opacity="0.17"/>
</g>
<mask id="mask13_1269_8241" style="mask-type:luminance" maskUnits="userSpaceOnUse" x="459" y="205" width="330" height="333">
<path d="M716.16 537.163L459.856 321.941L460.836 321.093L717.163 536.314L716.16 537.163ZM721.892 535.663L720.59 534.578L786.914 205.038L788.173 206.103L721.892 535.663ZM461.163 316.634L461.093 316.575L650.697 248.741L461.163 316.634Z" fill="white"/>
</mask>
<g mask="url(#mask13_1269_8241)">
<path d="M716.16 537.163L459.856 321.941L460.836 321.093L717.163 536.314L716.16 537.163ZM721.892 535.663L720.59 534.578L786.914 205.038L788.173 206.103L721.892 535.663ZM461.163 316.634L461.093 316.575L650.697 248.741L461.163 316.634Z" fill="#00BBC2" fill-opacity="0.17"/>
</g>
<mask id="mask14_1269_8241" style="mask-type:luminance" maskUnits="userSpaceOnUse" x="1050" y="311" width="209" height="225">
<path d="M1131.35 535.312L1050.14 358.468L1051.22 357.56L1132.44 534.405L1131.35 535.312ZM1137.69 534.858L1136.59 533.931L1183.59 448.34L1184.71 449.307L1137.69 534.858ZM1190.4 438.968L1189.32 438.061L1213.76 393.529L1257.07 314.547L1258.24 315.534L1190.4 438.968ZM1056.84 351.641L1056.79 351.581L1253.9 311.864L1253.93 311.883L1056.84 351.641Z" fill="white"/>
</mask>
<g mask="url(#mask14_1269_8241)">
<path d="M1131.35 535.312L1050.14 358.468L1051.22 357.56L1132.44 534.405L1131.35 535.312ZM1137.69 534.858L1136.59 533.931L1183.59 448.34L1184.71 449.307L1137.69 534.858ZM1190.4 438.968L1189.32 438.061L1213.76 393.529L1257.07 314.547L1258.24 315.534L1190.4 438.968ZM1056.84 351.641L1056.79 351.581L1253.9 311.864L1253.93 311.883L1056.84 351.641Z" fill="#00BBC2" fill-opacity="0.17"/>
</g>
<mask id="mask15_1269_8241" style="mask-type:luminance" maskUnits="userSpaceOnUse" x="444" y="322" width="115" height="217">
<path d="M449.315 538.503L448.616 537.931L554.424 491.505L556.08 492.926L449.315 538.503ZM446.05 535.78L444.721 534.676L448.149 463.744L454.796 326.242L456.265 324.999L450.808 437.542L446.05 535.78ZM557.946 486.809L458.34 323.223L459.507 322.217L558.949 485.981L557.946 486.809Z" fill="white"/>
</mask>
<g mask="url(#mask15_1269_8241)">
<path d="M449.315 538.503L448.616 537.931L554.424 491.505L556.08 492.926L449.315 538.503ZM446.05 535.78L444.721 534.676L448.149 463.744L454.796 326.242L456.265 324.999L450.808 437.542L446.05 535.78ZM557.946 486.809L458.34 323.223L459.507 322.217L558.949 485.981L557.946 486.809Z" fill="#00BBC2" fill-opacity="0.17"/>
</g>
<mask id="mask16_1269_8241" style="mask-type:luminance" maskUnits="userSpaceOnUse" x="-14" y="331" width="127" height="190">
<path d="M-13.0742 520.57V518.676L111.742 395.005L112.744 395.853L-13.0742 520.57ZM110.178 387.981L-13.0742 332.696V331.413L111.205 387.113L110.178 387.981Z" fill="white"/>
</mask>
<g mask="url(#mask16_1269_8241)">
<path d="M-13.0742 520.57V518.676L111.742 395.005L112.744 395.853L-13.0742 520.57ZM110.178 387.981L-13.0742 332.696V331.413L111.205 387.113L110.178 387.981Z" fill="#00BBC2" fill-opacity="0.17"/>
</g>
<mask id="mask17_1269_8241" style="mask-type:luminance" maskUnits="userSpaceOnUse" x="-14" y="86" width="195" height="208">
<path d="M-13.0742 293.644V292.165L179.723 152.235L180.702 153.064L-13.0742 293.644ZM179.653 147.678L-13.0742 88.227V86.949L180.772 146.728L179.653 147.678Z" fill="white"/>
</mask>
<g mask="url(#mask17_1269_8241)">
<path d="M-13.0742 293.644V292.165L179.723 152.235L180.702 153.064L-13.0742 293.644ZM179.653 147.678L-13.0742 88.227V86.949L180.772 146.728L179.653 147.678Z" fill="#00BBC2" fill-opacity="0.17"/>
</g>
<mask id="mask18_1269_8241" style="mask-type:luminance" maskUnits="userSpaceOnUse" x="456" y="111" width="327" height="206">
<path d="M461.093 316.572L459.996 315.644L781.594 200.536L782.74 201.503L650.696 248.738L461.093 316.572ZM456.708 311.363L501.578 117.529L501.648 117.569L456.708 311.363ZM781.618 196.965L509.671 112.755L510.72 111.866L782.764 195.998L781.618 196.965Z" fill="white"/>
</mask>
<g mask="url(#mask18_1269_8241)">
<path d="M461.093 316.572L459.996 315.644L781.594 200.536L782.74 201.503L650.696 248.738L461.093 316.572ZM456.708 311.363L501.578 117.529L501.648 117.569L456.708 311.363ZM781.618 196.965L509.671 112.755L510.72 111.866L782.764 195.998L781.618 196.965Z" fill="#00BBC2" fill-opacity="0.17"/>
</g>
<mask id="mask19_1269_8241" style="mask-type:luminance" maskUnits="userSpaceOnUse" x="1362" y="384" width="118" height="24">
<path d="M1363.63 407.533L1363.81 407.375L1362.71 406.467L1479.49 384.724V386.007L1363.63 407.533Z" fill="white"/>
</mask>
<g mask="url(#mask19_1269_8241)">
<path d="M1363.63 407.533L1363.81 407.375L1362.71 406.467L1479.49 384.724V386.007L1363.63 407.533Z" fill="#00BBC2" fill-opacity="0.17"/>
</g>
<mask id="mask20_1269_8241" style="mask-type:luminance" maskUnits="userSpaceOnUse" x="1372" y="267" width="108" height="78">
<path d="M1479.49 344.79L1372.74 267.722L1372.77 267.702L1479.49 344.77V344.79Z" fill="white"/>
</mask>
<g mask="url(#mask20_1269_8241)">
<path d="M1479.49 344.79L1372.74 267.722L1372.77 267.702L1479.49 344.77V344.79Z" fill="#00BBC2" fill-opacity="0.17"/>
</g>
<mask id="mask21_1269_8241" style="mask-type:luminance" maskUnits="userSpaceOnUse" x="1373" y="266" width="107" height="78">
<path d="M1479.48 343.208L1373.77 266.851L1373.79 266.831L1479.48 343.169V343.208Z" fill="white"/>
</mask>
<g mask="url(#mask21_1269_8241)">
<path d="M1479.48 343.208L1373.77 266.851L1373.79 266.831L1479.48 343.169V343.208Z" fill="#00BBC2" fill-opacity="0.17"/>
</g>
<mask id="mask22_1269_8241" style="mask-type:luminance" maskUnits="userSpaceOnUse" x="1049" y="223" width="98" height="125">
<path d="M1051.61 347.139L1145.2 226.269V226.289L1051.61 347.139ZM1119.24 262.001L1146.23 227.157V227.177L1119.24 262.001ZM1051.14 244.974L1049.98 243.987L1142.05 223.566L1143.24 224.592L1113.76 231.123L1051.14 244.974Z" fill="white"/>
</mask>
<g mask="url(#mask22_1269_8241)">
<path d="M1051.61 347.139L1145.2 226.269V226.289L1051.61 347.139ZM1119.24 262.001L1146.23 227.157V227.177L1119.24 262.001ZM1051.14 244.974L1049.98 243.987L1142.05 223.566L1143.24 224.592L1113.76 231.123L1051.14 244.974Z" fill="#00BBC2" fill-opacity="0.17"/>
</g>
<mask id="mask23_1269_8241" style="mask-type:luminance" maskUnits="userSpaceOnUse" x="793" y="199" width="256" height="151">
<path d="M1042.33 349.904L793.584 202.043L794.659 201.155L1038.56 346.194L1043.36 349.055L1042.33 349.904ZM1047.27 345.74L1044.31 253.914L1045.71 252.75L1048.72 344.655L1048.63 344.576L1047.27 345.74ZM1036.97 245.016L959.819 230.751L795.566 200.366L796.76 199.36L1038.18 243.99L1036.97 245.016Z" fill="white"/>
</mask>
<g mask="url(#mask23_1269_8241)">
<path d="M1042.33 349.904L793.584 202.043L794.659 201.155L1038.56 346.194L1043.36 349.055L1042.33 349.904ZM1047.27 345.74L1044.31 253.914L1045.71 252.75L1048.72 344.655L1048.63 344.576L1047.27 345.74ZM1036.97 245.016L959.819 230.751L795.566 200.366L796.76 199.36L1038.18 243.99L1036.97 245.016Z" fill="#00BBC2" fill-opacity="0.17"/>
</g>
<mask id="mask24_1269_8241" style="mask-type:luminance" maskUnits="userSpaceOnUse" x="1264" y="266" width="106" height="138">
<path d="M1350.73 403.315L1264.72 315.238L1265.7 314.409L1351.74 402.487L1350.73 403.315ZM1357.82 402.349L1356.4 401.145L1368.27 270.371L1368.94 270.943L1369.74 270.272L1357.82 402.349ZM1267.03 307.878L1267.01 307.859L1291.98 297.48L1267.03 307.878ZM1324.93 282.466L1363.56 266.385L1363.58 266.405L1324.93 282.466Z" fill="white"/>
</mask>
<g mask="url(#mask24_1269_8241)">
<path d="M1350.73 403.315L1264.72 315.238L1265.7 314.409L1351.74 402.487L1350.73 403.315ZM1357.82 402.349L1356.4 401.145L1368.27 270.371L1368.94 270.943L1369.74 270.272L1357.82 402.349ZM1267.03 307.878L1267.01 307.859L1291.98 297.48L1267.03 307.878ZM1324.93 282.466L1363.56 266.385L1363.58 266.405L1324.93 282.466Z" fill="#00BBC2" fill-opacity="0.17"/>
</g>
<mask id="mask25_1269_8241" style="mask-type:luminance" maskUnits="userSpaceOnUse" x="1258" y="198" width="180" height="110">
<path d="M1267 307.85L1265.95 306.942L1324.93 282.457L1363.58 266.396L1364.68 267.324L1291.98 297.472L1267 307.85ZM1376.73 262.332L1376.66 262.292L1437.67 236.939L1437.76 237.018L1376.73 262.332ZM1259.36 257.103L1258.91 204.442L1259 204.364L1259.36 257.103ZM1260.73 252.388L1260.31 203.259L1260.41 203.18L1260.73 252.388ZM1435.13 233.288L1354.76 217.405L1264.63 199.608L1265.82 198.622L1409.24 226.935L1436.32 232.282L1435.13 233.288Z" fill="white"/>
</mask>
<g mask="url(#mask25_1269_8241)">
<path d="M1267 307.85L1265.95 306.942L1324.93 282.457L1363.58 266.396L1364.68 267.324L1291.98 297.472L1267 307.85ZM1376.73 262.332L1376.66 262.292L1437.67 236.939L1437.76 237.018L1376.73 262.332ZM1259.36 257.103L1258.91 204.442L1259 204.364L1259.36 257.103ZM1260.73 252.388L1260.31 203.259L1260.41 203.18L1260.73 252.388ZM1435.13 233.288L1354.76 217.405L1264.63 199.608L1265.82 198.622L1409.24 226.935L1436.32 232.282L1435.13 233.288Z" fill="#00BBC2" fill-opacity="0.17"/>
</g>
<mask id="mask26_1269_8241" style="mask-type:luminance" maskUnits="userSpaceOnUse" x="1152" y="199" width="110" height="109">
<path d="M1256.12 307.36L1152.22 226.05H1152.25L1256.16 307.34L1256.12 307.36ZM1259.66 304.4L1259.36 257.106L1259.01 204.366L1260.31 203.261L1260.73 252.391L1261.16 303.137L1259.66 304.4ZM1157.33 221.374L1156.19 220.407L1184.22 214.153L1251.41 199.177L1252.62 200.183L1157.33 221.374Z" fill="white"/>
</mask>
<g mask="url(#mask26_1269_8241)">
<path d="M1256.12 307.36L1152.22 226.05H1152.25L1256.16 307.34L1256.12 307.36ZM1259.66 304.4L1259.36 257.106L1259.01 204.366L1260.31 203.261L1260.73 252.391L1261.16 303.137L1259.66 304.4ZM1157.33 221.374L1156.19 220.407L1184.22 214.153L1251.41 199.177L1252.62 200.183L1157.33 221.374Z" fill="#00BBC2" fill-opacity="0.17"/>
</g>
<mask id="mask27_1269_8241" style="mask-type:luminance" maskUnits="userSpaceOnUse" x="1051" y="225" width="207" height="127">
<path d="M1056.79 351.578L1055.6 350.552L1252.69 310.835L1253.9 311.86L1056.79 351.578ZM1052.66 348.027L1051.61 347.139L1145.2 226.289L1146.23 227.157L1119.24 262.001L1052.66 348.027ZM1256.16 307.342L1152.25 226.052L1153.27 225.184L1257.17 306.494L1256.16 307.342Z" fill="white"/>
</mask>
<g mask="url(#mask27_1269_8241)">
<path d="M1056.79 351.578L1055.6 350.552L1252.69 310.835L1253.9 311.86L1056.79 351.578ZM1052.66 348.027L1051.61 347.139L1145.2 226.289L1146.23 227.157L1119.24 262.001L1052.66 348.027ZM1256.16 307.342L1152.25 226.052L1153.27 225.184L1257.17 306.494L1256.16 307.342Z" fill="#00BBC2" fill-opacity="0.17"/>
</g>
<mask id="mask28_1269_8241" style="mask-type:luminance" maskUnits="userSpaceOnUse" x="191" y="110" width="312" height="205">
<path d="M450.155 314.981L191.195 153.131L192.268 152.223L362.35 258.551L451.204 314.113L450.155 314.981ZM457.617 313.6L456.428 312.574L456.708 311.37L501.648 117.576L502.791 118.561L502.838 118.541L500.086 130.34L457.617 313.6ZM193.178 148.455L192.012 147.448L493.952 110.985L495.212 112.071L193.178 148.455Z" fill="white"/>
</mask>
<g mask="url(#mask28_1269_8241)">
<path d="M450.155 314.981L191.195 153.131L192.268 152.223L362.35 258.551L451.204 314.113L450.155 314.981ZM457.617 313.6L456.428 312.574L456.708 311.37L501.648 117.576L502.791 118.561L502.838 118.541L500.086 130.34L457.617 313.6ZM193.178 148.455L192.012 147.448L493.952 110.985L495.212 112.071L193.178 148.455Z" fill="#00BBC2" fill-opacity="0.17"/>
</g>
<mask id="mask29_1269_8241" style="mask-type:luminance" maskUnits="userSpaceOnUse" x="1372" y="266" width="108" height="79">
<path d="M1479.49 344.771L1372.77 267.703L1373.77 266.855L1479.49 343.212V344.771Z" fill="white"/>
</mask>
<g mask="url(#mask29_1269_8241)">
<path d="M1479.49 344.771L1372.77 267.703L1373.77 266.855L1479.49 343.212V344.771Z" fill="#00BBC2" fill-opacity="0.17"/>
</g>
<mask id="mask30_1269_8241" style="mask-type:luminance" maskUnits="userSpaceOnUse" x="1375" y="236" width="105" height="64">
<path d="M1479.49 299.156L1445.34 239.846L1446.44 238.919L1477.67 293.217L1479.49 296.394V299.156ZM1376.66 262.299L1375.59 261.392L1436.62 236.058L1437.67 236.946L1376.66 262.299Z" fill="white"/>
</mask>
<g mask="url(#mask30_1269_8241)">
<path d="M1479.49 299.156L1445.34 239.846L1446.44 238.919L1477.67 293.217L1479.49 296.394V299.156ZM1376.66 262.299L1375.59 261.392L1436.62 236.058L1437.67 236.946L1376.66 262.299Z" fill="#00BBC2" fill-opacity="0.17"/>
</g>
<mask id="mask31_1269_8241" style="mask-type:luminance" maskUnits="userSpaceOnUse" x="1249" y="189" width="19" height="16">
<path d="M1258.28 204.995L1252.64 200.2L1252.62 200.18L1251.4 199.174L1249.3 197.398L1253.31 193.985L1254.29 193.157L1258.28 189.802L1264.53 195.07L1265.56 195.939L1267.26 197.398L1265.86 198.563L1265.82 198.622L1264.63 199.608L1264.6 199.628L1260.41 203.18L1260.31 203.259L1259 204.364L1258.91 204.443L1258.28 204.995Z" fill="white"/>
</mask>
<g mask="url(#mask31_1269_8241)">
<path d="M1258.28 204.995L1252.64 200.2L1252.62 200.18L1251.4 199.174L1249.3 197.398L1253.31 193.985L1254.29 193.157L1258.28 189.802L1264.53 195.07L1265.56 195.939L1267.26 197.398L1265.86 198.563L1265.82 198.622L1264.63 199.608L1264.6 199.628L1260.41 203.18L1260.31 203.259L1259 204.364L1258.91 204.443L1258.28 204.995Z" fill="#00BBC2" fill-opacity="0.17"/>
</g>
<mask id="mask32_1269_8241" style="mask-type:luminance" maskUnits="userSpaceOnUse" x="1252" y="303" width="19" height="16">
<path d="M1261.32 318.135L1258.23 315.53L1257.07 314.544L1253.92 311.88L1253.9 311.86L1252.69 310.834L1252.34 310.539L1256.12 307.362L1256.16 307.342L1257.17 306.494L1259.66 304.402L1261.15 303.139L1261.32 303.001L1265.95 306.947L1267 307.855L1267.03 307.875L1270.17 310.539L1265.7 314.386V314.406L1264.72 315.234H1264.69L1261.32 318.135Z" fill="white"/>
</mask>
<g mask="url(#mask32_1269_8241)">
<path d="M1261.32 318.135L1258.23 315.53L1257.07 314.544L1253.92 311.88L1253.9 311.86L1252.69 310.834L1252.34 310.539L1256.12 307.362L1256.16 307.342L1257.17 306.494L1259.66 304.402L1261.15 303.139L1261.32 303.001L1265.95 306.947L1267 307.855L1267.03 307.875L1270.17 310.539L1265.7 314.386V314.406L1264.72 315.234H1264.69L1261.32 318.135Z" fill="#00BBC2" fill-opacity="0.17"/>
</g>
<mask id="mask33_1269_8241" style="mask-type:luminance" maskUnits="userSpaceOnUse" x="1345" y="399" width="19" height="17">
<path d="M1354.83 415.033L1353.78 414.106L1352.8 413.257L1349.5 410.416L1348.28 409.371L1345.97 407.378L1350.71 403.333L1350.73 403.313L1351.73 402.484L1351.75 402.445L1354.83 399.841L1356.4 401.143L1357.82 402.347L1362.71 406.47L1363.81 407.378L1363.63 407.535L1359.15 411.343L1358.1 412.251L1354.83 415.033Z" fill="white"/>
</mask>
<g mask="url(#mask33_1269_8241)">
<path d="M1354.83 415.033L1353.78 414.106L1352.8 413.257L1349.5 410.416L1348.28 409.371L1345.97 407.378L1350.71 403.333L1350.73 403.313L1351.73 402.484L1351.75 402.445L1354.83 399.841L1356.4 401.143L1357.82 402.347L1362.71 406.47L1363.81 407.378L1363.63 407.535L1359.15 411.343L1358.1 412.251L1354.83 415.033Z" fill="#00BBC2" fill-opacity="0.17"/>
</g>
<mask id="mask34_1269_8241" style="mask-type:luminance" maskUnits="userSpaceOnUse" x="1179" y="437" width="19" height="16">
<path d="M1188.2 452.324L1184.7 449.305L1183.59 448.338L1179.34 444.669L1188.2 437.132L1189.3 438.059H1189.32L1190.39 438.967L1194.57 442.479L1194.59 442.498L1195.71 443.426L1195.78 443.485L1197.18 444.669L1191.26 449.7L1190.28 450.548L1188.2 452.324Z" fill="white"/>
</mask>
<g mask="url(#mask34_1269_8241)">
<path d="M1188.2 452.324L1184.7 449.305L1183.59 448.338L1179.34 444.669L1188.2 437.132L1189.3 438.059H1189.32L1190.39 438.967L1194.57 442.479L1194.59 442.498L1195.71 443.426L1195.78 443.485L1197.18 444.669L1191.26 449.7L1190.28 450.548L1188.2 452.324Z" fill="#00BBC2" fill-opacity="0.17"/>
</g>
<mask id="mask35_1269_8241" style="mask-type:luminance" maskUnits="userSpaceOnUse" x="1139" y="213" width="19" height="17">
<path d="M1148.56 229.171L1146.23 227.179V227.159L1145.2 226.291V226.271L1143.24 224.594L1142.05 223.568L1139.7 221.575L1148.56 213.959L1156.16 220.391L1156.19 220.411L1157.33 221.378L1157.37 221.418L1157.54 221.575L1153.27 225.186L1152.25 226.054H1152.22L1148.56 229.171Z" fill="white"/>
</mask>
<g mask="url(#mask35_1269_8241)">
<path d="M1148.56 229.171L1146.23 227.179V227.159L1145.2 226.291V226.271L1143.24 224.594L1142.05 223.568L1139.7 221.575L1148.56 213.959L1156.16 220.391L1156.19 220.411L1157.33 221.378L1157.37 221.418L1157.54 221.575L1153.27 225.186L1152.25 226.054H1152.22L1148.56 229.171Z" fill="#00BBC2" fill-opacity="0.17"/>
</g>
<mask id="mask36_1269_8241" style="mask-type:luminance" maskUnits="userSpaceOnUse" x="1035" y="239" width="19" height="16">
<path d="M1044.08 254.106L1035.1 246.569L1036.96 245.01L1038.18 243.984L1038.2 243.965L1043.17 239.782L1044.08 239.032L1044.61 239.466V239.486L1049.98 243.984L1051.14 244.971L1051.24 245.03L1053.05 246.569L1045.71 252.745L1044.31 253.908L1044.08 254.106Z" fill="white"/>
</mask>
<g mask="url(#mask36_1269_8241)">
<path d="M1044.08 254.106L1035.1 246.569L1036.96 245.01L1038.18 243.984L1038.2 243.965L1043.17 239.782L1044.08 239.032L1044.61 239.466V239.486L1049.98 243.984L1051.14 244.971L1051.24 245.03L1053.05 246.569L1045.71 252.745L1044.31 253.908L1044.08 254.106Z" fill="#00BBC2" fill-opacity="0.17"/>
</g>
<mask id="mask37_1269_8241" style="mask-type:luminance" maskUnits="userSpaceOnUse" x="1039" y="344" width="19" height="16">
<path d="M1048.63 359.763L1047.06 358.461L1045.85 357.415L1039.65 352.167L1042.28 349.957L1042.33 349.898L1043.35 349.049L1047.27 345.734L1048.63 344.571L1048.72 344.65L1051.61 347.136L1052.66 348.024L1055.6 350.549L1056.79 351.575L1056.83 351.634L1057.49 352.167L1051.22 357.553L1050.14 358.461L1048.63 359.763Z" fill="white"/>
</mask>
<g mask="url(#mask37_1269_8241)">
<path d="M1048.63 359.763L1047.06 358.461L1045.85 357.415L1039.65 352.167L1042.28 349.957L1042.33 349.898L1043.35 349.049L1047.27 345.734L1048.63 344.571L1048.72 344.65L1051.61 347.136L1052.66 348.024L1055.6 350.549L1056.79 351.575L1056.83 351.634L1057.49 352.167L1051.22 357.553L1050.14 358.461L1048.63 359.763Z" fill="#00BBC2" fill-opacity="0.17"/>
</g>
<mask id="mask38_1269_8241" style="mask-type:luminance" maskUnits="userSpaceOnUse" x="977" y="531" width="19" height="16">
<path d="M986.122 546.67L977.143 539.113L982.069 534.95L983.161 534.042L986.122 531.517L987.269 532.484L988.481 533.509L995.102 539.113L986.122 546.67Z" fill="white"/>
</mask>
<g mask="url(#mask38_1269_8241)">
<path d="M986.122 546.67L977.143 539.113L982.069 534.95L983.161 534.042L986.122 531.517L987.269 532.484L988.481 533.509L995.102 539.113L986.122 546.67Z" fill="#00BBC2" fill-opacity="0.17"/>
</g>
<mask id="mask39_1269_8241" style="mask-type:luminance" maskUnits="userSpaceOnUse" x="1125" y="532" width="19" height="16">
<path d="M1134.8 547.502L1125.82 539.966L1131.35 535.309L1132.44 534.402L1134.8 532.429L1136.59 533.928L1137.69 534.855L1143.78 539.966L1134.8 547.502Z" fill="white"/>
</mask>
<g mask="url(#mask39_1269_8241)">
<path d="M1134.8 547.502L1125.82 539.966L1131.35 535.309L1132.44 534.402L1134.8 532.429L1136.59 533.928L1137.69 534.855L1143.78 539.966L1134.8 547.502Z" fill="#00BBC2" fill-opacity="0.17"/>
</g>
<mask id="mask40_1269_8241" style="mask-type:luminance" maskUnits="userSpaceOnUse" x="1271" y="532" width="16" height="14">
<path d="M1279.04 545.625L1271.58 539.271L1275.17 536.194L1276.1 535.424L1279.04 532.918L1281.44 534.951L1282.52 535.878L1286.5 539.271L1279.04 545.625Z" fill="white"/>
</mask>
<g mask="url(#mask40_1269_8241)">
<path d="M1279.04 545.625L1271.58 539.271L1275.17 536.194L1276.1 535.424L1279.04 532.918L1281.44 534.951L1282.52 535.878L1286.5 539.271L1279.04 545.625Z" fill="#00BBC2" fill-opacity="0.17"/>
</g>
<mask id="mask41_1269_8241" style="mask-type:luminance" maskUnits="userSpaceOnUse" x="1428" y="531" width="15" height="14">
<path d="M1435.64 544.459L1428.06 538.087L1432.05 534.791L1433.12 533.903L1435.64 531.832L1438 533.825L1439.07 534.752L1442.99 538.087L1435.64 544.459Z" fill="white"/>
</mask>
<g mask="url(#mask41_1269_8241)">
<path d="M1435.64 544.459L1428.06 538.087L1432.05 534.791L1433.12 533.903L1435.64 531.832L1438 533.825L1439.07 534.752L1442.99 538.087L1435.64 544.459Z" fill="#00BBC2" fill-opacity="0.17"/>
</g>
<mask id="mask42_1269_8241" style="mask-type:luminance" maskUnits="userSpaceOnUse" x="712" y="533" width="16" height="14">
<path d="M719.911 546.67L712.448 540.297L716.161 537.16L717.164 536.311L719.911 533.983L720.591 534.575L721.893 535.66L727.373 540.297L719.911 546.67Z" fill="white"/>
</mask>
<g mask="url(#mask42_1269_8241)">
<path d="M719.911 546.67L712.448 540.297L716.161 537.16L717.164 536.311L719.911 533.983L720.591 534.575L721.893 535.66L727.373 540.297L719.911 546.67Z" fill="#00BBC2" fill-opacity="0.17"/>
</g>
<mask id="mask43_1269_8241" style="mask-type:luminance" maskUnits="userSpaceOnUse" x="553" y="484" width="16" height="13">
<path d="M560.86 496.995L556.079 492.931L554.424 491.51L553.397 490.642L557.945 486.814L558.948 485.986L560.86 484.368L568.323 490.642L560.86 496.995Z" fill="white"/>
</mask>
<g mask="url(#mask43_1269_8241)">
<path d="M560.86 496.995L556.079 492.931L554.424 491.51L553.397 490.642L557.945 486.814L558.948 485.986L560.86 484.368L568.323 490.642L560.86 496.995Z" fill="#00BBC2" fill-opacity="0.17"/>
</g>
<mask id="mask44_1269_8241" style="mask-type:luminance" maskUnits="userSpaceOnUse" x="436" y="533" width="16" height="14">
<path d="M443.904 546.67L436.558 540.297L439.986 537.377L441.036 536.449L443.904 533.983L444.697 534.654L444.721 534.674L446.05 535.778L446.074 535.798L448.615 537.929L449.315 538.501L451.484 540.297L443.904 546.67Z" fill="white"/>
</mask>
<g mask="url(#mask44_1269_8241)">
<path d="M443.904 546.67L436.558 540.297L439.986 537.377L441.036 536.449L443.904 533.983L444.697 534.654L444.721 534.674L446.05 535.778L446.074 535.798L448.615 537.929L449.315 538.501L451.484 540.297L443.904 546.67Z" fill="#00BBC2" fill-opacity="0.17"/>
</g>
<mask id="mask45_1269_8241" style="mask-type:luminance" maskUnits="userSpaceOnUse" x="213" y="533" width="16" height="13">
<path d="M221.071 545.829L213.491 539.475L218.015 535.746L221.071 540.107L226.62 537.956L228.416 539.475L221.071 545.829ZM221.537 538.45L219.041 534.878L221.071 533.201L225.431 536.93L221.537 538.45Z" fill="white"/>
</mask>
<g mask="url(#mask45_1269_8241)">
<path d="M221.071 545.829L213.491 539.475L218.015 535.746L221.071 540.107L226.62 537.956L228.416 539.475L221.071 545.829ZM221.537 538.45L219.041 534.878L221.071 533.201L225.431 536.93L221.537 538.45Z" fill="#00BBC2" fill-opacity="0.17"/>
</g>
<mask id="mask46_1269_8241" style="mask-type:luminance" maskUnits="userSpaceOnUse" x="359" y="475" width="16" height="13">
<path d="M367.06 487.913L363.142 484.618L366.78 483.197L366.711 483.73L368.226 482.882V481.994L367.76 481.856L361.86 479.685L367.06 475.286L369.416 477.239L369.509 477.337L370.535 478.186L374.64 481.599L371.258 484.421L370.302 485.229L367.06 487.913ZM362.116 483.75L359.598 481.599L360.81 480.593V480.573L365.661 482.369L362.116 483.75Z" fill="white"/>
</mask>
<g mask="url(#mask46_1269_8241)">
<path d="M367.06 487.913L363.142 484.618L366.78 483.197L366.711 483.73L368.226 482.882V481.994L367.76 481.856L361.86 479.685L367.06 475.286L369.416 477.239L369.509 477.337L370.535 478.186L374.64 481.599L371.258 484.421L370.302 485.229L367.06 487.913ZM362.116 483.75L359.598 481.599L360.81 480.593V480.573L365.661 482.369L362.116 483.75Z" fill="#00BBC2" fill-opacity="0.17"/>
</g>
<mask id="mask47_1269_8241" style="mask-type:luminance" maskUnits="userSpaceOnUse" x="779" y="191" width="19" height="16">
<path d="M788.477 206.364L788.173 206.108L786.913 205.042L782.74 201.51L781.594 200.543L779.498 198.768L781.617 196.972L782.764 196.006L788.477 191.172L792.537 194.605L793.582 195.512L797.457 198.768L796.776 199.36H796.758L795.564 200.366L795.522 200.425L794.657 201.155L793.582 202.043V202.063L792.722 202.793L791.671 203.661L788.477 206.364Z" fill="white"/>
</mask>
<g mask="url(#mask47_1269_8241)">
<path d="M788.477 206.364L788.173 206.108L786.913 205.042L782.74 201.51L781.594 200.543L779.498 198.768L781.617 196.972L782.764 196.006L788.477 191.172L792.537 194.605L793.582 195.512L797.457 198.768L796.776 199.36H796.758L795.564 200.366L795.522 200.425L794.657 201.155L793.582 202.043V202.063L792.722 202.793L791.671 203.661L788.477 206.364Z" fill="#00BBC2" fill-opacity="0.17"/>
</g>
<mask id="mask48_1269_8241" style="mask-type:luminance" maskUnits="userSpaceOnUse" x="445" y="311" width="19" height="16">
<path d="M454.749 326.283L452.953 324.803L451.81 323.856L447.519 320.285L447.472 320.245L446.237 319.239L445.653 318.726L450.154 314.977L451.204 314.109L451.227 314.089L454.749 311.13L456.428 312.57L457.617 313.596L459.996 315.648L461.092 316.575L461.162 316.634L463.611 318.726L460.836 321.093L459.856 321.942L459.507 322.218L458.34 323.224L456.265 325L454.796 326.243L454.749 326.283Z" fill="white"/>
</mask>
<g mask="url(#mask48_1269_8241)">
<path d="M454.749 326.283L452.953 324.803L451.81 323.856L447.519 320.285L447.472 320.245L446.237 319.239L445.653 318.726L450.154 314.977L451.204 314.109L451.227 314.089L454.749 311.13L456.428 312.57L457.617 313.596L459.996 315.648L461.092 316.575L461.162 316.634L463.611 318.726L460.836 321.093L459.856 321.942L459.507 322.218L458.34 323.224L456.265 325L454.796 326.243L454.749 326.283Z" fill="#00BBC2" fill-opacity="0.17"/>
</g>
<mask id="mask49_1269_8241" style="mask-type:luminance" maskUnits="userSpaceOnUse" x="106" y="383" width="19" height="16">
<path d="M115.775 398.395L112.743 395.85L111.74 395.001L106.796 390.858L110.154 387.977H110.177L111.204 387.109V387.089L115.775 383.203L118.013 385.097L119.227 386.142L119.25 386.162L122.305 388.767L122.328 388.786L123.494 389.793L124.753 390.858L123.354 392.022L123.261 392.101L115.425 389.22L116.708 390.74L119.739 395.081L115.775 398.395ZM120.742 394.212L119.04 391.785L122.235 392.969L122.212 392.989L120.742 394.212Z" fill="white"/>
</mask>
<g mask="url(#mask49_1269_8241)">
<path d="M115.775 398.395L112.743 395.85L111.74 395.001L106.796 390.858L110.154 387.977H110.177L111.204 387.109V387.089L115.775 383.203L118.013 385.097L119.227 386.142L119.25 386.162L122.305 388.767L122.328 388.786L123.494 389.793L124.753 390.858L123.354 392.022L123.261 392.101L115.425 389.22L116.708 390.74L119.739 395.081L115.775 398.395ZM120.742 394.212L119.04 391.785L122.235 392.969L122.212 392.989L120.742 394.212Z" fill="#00BBC2" fill-opacity="0.17"/>
</g>
<mask id="mask50_1269_8241" style="mask-type:luminance" maskUnits="userSpaceOnUse" x="1359" y="255" width="19" height="16">
<path d="M1368.94 270.938L1368.27 270.367L1364.68 267.328L1363.58 266.401L1363.56 266.381L1359.96 263.342L1368.94 255.785L1375.59 261.389L1376.66 262.297L1376.73 262.336L1377.92 263.342L1373.8 266.835L1373.77 266.854L1372.77 267.703L1372.75 267.723L1369.74 270.268L1368.94 270.938Z" fill="white"/>
</mask>
<g mask="url(#mask50_1269_8241)">
<path d="M1368.94 270.938L1368.27 270.367L1364.68 267.328L1363.58 266.401L1363.56 266.381L1359.96 263.342L1368.94 255.785L1375.59 261.389L1376.66 262.297L1376.73 262.336L1377.92 263.342L1373.8 266.835L1373.77 266.854L1372.77 267.703L1372.75 267.723L1369.74 270.268L1368.94 270.938Z" fill="#00BBC2" fill-opacity="0.17"/>
</g>
<mask id="mask51_1269_8241" style="mask-type:luminance" maskUnits="userSpaceOnUse" x="1434" y="226" width="19" height="16">
<path d="M1443.22 241.639L1437.77 237.022L1437.67 236.943L1436.62 236.055L1434.24 234.042L1435.13 233.292L1436.32 232.286L1443.22 226.446L1452.2 234.042L1450.94 235.108L1450.92 235.127L1449.71 236.153L1446.47 238.896L1446.44 238.916L1445.34 239.843L1443.22 241.639Z" fill="white"/>
</mask>
<g mask="url(#mask51_1269_8241)">
<path d="M1443.22 241.639L1437.77 237.022L1437.67 236.943L1436.62 236.055L1434.24 234.042L1435.13 233.292L1436.32 232.286L1443.22 226.446L1452.2 234.042L1450.94 235.108L1450.92 235.127L1449.71 236.153L1446.47 238.896L1446.44 238.916L1445.34 239.843L1443.22 241.639Z" fill="#00BBC2" fill-opacity="0.17"/>
</g>
<mask id="mask52_1269_8241" style="mask-type:luminance" maskUnits="userSpaceOnUse" x="1002" y="0" width="19" height="16">
<path d="M1011.31 15.1934L1007.79 12.2335L1006.81 11.4203L1002.22 7.59663L1011.31 -0.000138283L1020.17 7.59663L1017.33 10.0413L1016.33 10.8899L1014.09 12.8042L1012.76 13.9458L1011.31 15.1934Z" fill="white"/>
</mask>
<g mask="url(#mask52_1269_8241)">
<path d="M1011.31 15.1934L1007.79 12.2335L1006.81 11.4203L1002.22 7.59663L1011.31 -0.000138283L1020.17 7.59663L1017.33 10.0413L1016.33 10.8899L1014.09 12.8042L1012.76 13.9458L1011.31 15.1934Z" fill="#00BBC2" fill-opacity="0.17"/>
</g>
<mask id="mask53_1269_8241" style="mask-type:luminance" maskUnits="userSpaceOnUse" x="493" y="103" width="19" height="16">
<path d="M502.79 118.557L501.647 117.572L501.577 117.531L495.211 112.066L493.951 110.98L493.928 110.96L502.79 103.424L511.769 110.96L510.72 111.869L509.67 112.758L502.837 118.536L502.79 118.557Z" fill="white"/>
</mask>
<g mask="url(#mask53_1269_8241)">
<path d="M502.79 118.557L501.647 117.572L501.577 117.531L495.211 112.066L493.951 110.98L493.928 110.96L502.79 103.424L511.769 110.96L510.72 111.869L509.67 112.758L502.837 118.536L502.79 118.557Z" fill="#00BBC2" fill-opacity="0.17"/>
</g>
<mask id="mask54_1269_8241" style="mask-type:luminance" maskUnits="userSpaceOnUse" x="176" y="142" width="19" height="16">
<path d="M185.971 157.531L184.269 156.091L184.199 156.051L183.01 155.045L180.724 153.111L180.7 153.072L179.721 152.243H179.698L176.992 149.934L179.651 147.685L180.771 146.736L185.971 142.336L192.012 147.448L193.178 148.455L194.95 149.934L192.268 152.223L191.195 153.131L185.971 157.531Z" fill="white"/>
</mask>
<g mask="url(#mask54_1269_8241)">
<path d="M185.971 157.531L184.269 156.091L184.199 156.051L183.01 155.045L180.724 153.111L180.7 153.072L179.721 152.243H179.698L176.992 149.934L179.651 147.685L180.771 146.736L185.971 142.336L192.012 147.448L193.178 148.455L194.95 149.934L192.268 152.223L191.195 153.131L185.971 157.531Z" fill="#00BBC2" fill-opacity="0.17"/>
</g>
<mask id="mask55_1269_8241" style="mask-type:luminance" maskUnits="userSpaceOnUse" x="115" y="389" width="254" height="152">
<path d="M221.07 540.104L218.014 535.743L119.739 395.084L116.707 390.743L115.424 389.224L123.26 392.104L346.748 474.144L361.86 479.689L367.76 481.859L368.227 481.997V482.885L366.711 483.733L366.781 483.201L367.294 483.003L366.594 481.997L365.661 482.372L360.81 480.576L122.234 392.973L119.039 391.789L120.742 394.216L219.04 534.875L221.536 538.446L221.07 538.624V540.104Z" fill="white"/>
</mask>
<g mask="url(#mask55_1269_8241)">
<path d="M221.07 540.104L218.014 535.743L119.739 395.084L116.707 390.743L115.424 389.224L123.26 392.104L346.748 474.144L361.86 479.689L367.76 481.859L368.227 481.997V482.885L366.711 483.733L366.781 483.201L367.294 483.003L366.594 481.997L365.661 482.372L360.81 480.576L122.234 392.973L119.039 391.789L120.742 394.216L219.04 534.875L221.536 538.446L221.07 538.624V540.104Z" fill="#00BBC2" fill-opacity="0.17"/>
</g>
<mask id="mask56_1269_8241" style="mask-type:luminance" maskUnits="userSpaceOnUse" x="221" y="481" width="147" height="60">
<path d="M221.072 540.104V538.624L221.539 538.446L225.433 536.927L362.119 483.753L365.664 482.372L366.597 481.997L367.296 483.003L366.783 483.201L363.145 484.621L226.622 537.953L221.072 540.104Z" fill="white"/>
</mask>
<g mask="url(#mask56_1269_8241)">
<path d="M221.072 540.104V538.624L221.539 538.446L225.433 536.927L362.119 483.753L365.664 482.372L366.597 481.997L367.296 483.003L366.783 483.201L363.145 484.621L226.622 537.953L221.072 540.104Z" fill="#00BBC2" fill-opacity="0.17"/>
</g>
<path d="M454.282 34.9961L422.448 271.528L675.95 224.668L454.282 34.9961ZM420.816 273.047V272.258L453.116 32.9858L455.098 34.0718L677.932 224.57L677.353 225.655L677.114 225.753L420.816 273.047Z" fill="#00BBC2" fill-opacity="0.17"/>
<path d="M452.883 35.1931L208.126 224.214L317.62 248.542H318.436L318.319 248.739L421.049 271.528L452.883 35.1931ZM205.328 224.806L206.261 224.076L453.233 33.2434L454.515 33.5768V34.0718L422.216 273.047L421.399 272.909L205.328 224.806Z" fill="#00BBC2" fill-opacity="0.17"/>
<path d="M-92.4842 209.573V282.971L23.0728 260.084L24.2389 259.255V259.946L204.746 224.213L-47.3574 108.159L-92.4842 209.573ZM-94 284.451L-93.8836 209.179L-48.1737 106.482L-47.3574 106.775L208.71 224.766L206.961 225.101L22.8396 261.425L-94 284.451Z" fill="#00BBC2" fill-opacity="0.17"/>
<path d="M205.678 337.532L111.111 434.409L278.674 470.457L205.678 337.532ZM108.545 435.1L109.362 434.37L206.145 335.303L206.494 336.151L281.356 472.292L108.545 435.1Z" fill="#00BBC2" fill-opacity="0.17"/>
<path d="M279.374 471.799L111.111 435.692L187.021 565.125L279.374 471.799ZM108.545 433.818L110.061 434.114L280.54 470.852L281.123 471.898L280.89 472.253L186.671 567.295L186.205 566.506L108.545 433.818Z" fill="#00BBC2" fill-opacity="0.17"/>
<path d="M1346.9 417.099L1011.66 345.221L1099.23 508.097L1346.9 417.099ZM1009.21 343.386L1010.61 343.741L1351.33 416.783L1349.35 417.533L1098.53 509.675L1098.18 509.142L1009.21 343.386Z" fill="#00BBC2" fill-opacity="0.17"/>
<path d="M674.666 227.376L418.951 379.46L480.985 564.493L674.666 227.376ZM417.318 378.907L417.785 378.671L678.398 223.687L677.234 225.818L480.635 567.887L480.053 566.308L417.318 378.907Z" fill="#00BBC2" fill-opacity="0.17"/>
<path d="M1511.55 343.449L1282.07 176.982L1349.58 416.116L1511.55 343.449ZM1279.62 173.667L1281.25 174.851L1514 343.745L1513.07 344.1L1348.65 417.873L1348.42 417.103L1279.62 173.667Z" fill="#00BBC2" fill-opacity="0.17"/>
<path d="M1280.32 176.274L1012.01 343.984L1348.07 416.158L1280.32 176.274ZM1008.74 344.576L1010.03 343.786L1281.26 174.261L1281.49 175.189L1350.05 417.835L1348.89 417.599L1008.74 344.576Z" fill="#00BBC2" fill-opacity="0.17"/>
<path d="M108.779 435.133L-57.3849 404.216L30.7695 564.566L108.779 435.133ZM-59.9502 402.479L-58.4343 402.834L110.878 434.364L110.528 435.054L29.9533 568.571V566.006L-59.9502 402.479Z" fill="#00BBC2" fill-opacity="0.17"/>
<path d="M1098.06 508.728L1011.31 347.293L1021.92 565.513L1098.06 508.728ZM1009.56 341.176L1099.7 509.024L1022.39 566.795H1020.99L1020.64 566.499L1020.52 566.203L1009.56 341.176Z" fill="#00BBC2" fill-opacity="0.17"/>
<path d="M1009.21 344.531L678.286 226.048L746.615 565.019L1009.21 344.531ZM676.537 224.134L1011.66 344.096L1010.96 344.728L746.382 566.795H745.451L745.332 566.203L676.537 224.134Z" fill="#00BBC2" fill-opacity="0.17"/>
<path d="M417.201 379.657L207.193 337.335L280.539 470.852L282.055 471.207L281.122 471.937L332.195 564.73L417.201 379.657ZM204.628 335.559L206.144 335.855L419.067 378.769L418.834 379.361L332.545 567.295L331.496 566.407L204.628 335.559Z" fill="#00BBC2" fill-opacity="0.17"/>
<path d="M1009.79 346.701L906.951 515.792L1020.52 565.611L1009.79 346.701ZM904.73 517.015L905.202 516.186L1011.08 341.827L1021.92 565.848L1022.86 566.756L1021.34 566.795L904.73 517.015Z" fill="#00BBC2" fill-opacity="0.17"/>
<path d="M1512.14 344.531L1350.28 417.139L1500.12 565.611H1512.14V344.531ZM1347.95 416.784L1512.71 342.952H1513.53L1513.65 343.544V566.795H1499.43L1499.19 566.598L1347.95 416.784Z" fill="#00BBC2" fill-opacity="0.17"/>
<path d="M1512.14 104.644L1282.19 175.538L1512.14 342.36V104.644ZM1279.51 175.045L1280.56 174.749L1512.95 103.129L1513.65 103.917L1513.53 344.826L1512.37 343.978L1279.51 175.045Z" fill="#00BBC2" fill-opacity="0.17"/>
<path d="M961.871 137.658L679.335 225.102L1009.45 343.248L961.871 137.658ZM675.484 225.062L677.114 224.471L962.922 136.077L963.035 136.769L1011.31 345.261L1010.15 344.827L675.484 225.062Z" fill="#00BBC2" fill-opacity="0.17"/>
<path d="M96.186 292.306L-57.0348 403.034L109.012 433.972L96.186 292.306ZM-60.2998 403.725L-59.1337 402.936L97.4684 289.84L97.5855 291.063L110.645 435.491L-60.2998 403.725Z" fill="#00BBC2" fill-opacity="0.17"/>
<path d="M420.817 272.717L319.136 250.225L417.552 377.191L420.817 272.717ZM315.988 248.252L317.737 248.607L422.333 271.77V272.323L418.835 381.137L417.552 379.499L315.988 248.252Z" fill="#00BBC2" fill-opacity="0.17"/>
<path d="M422.217 272.81L418.835 377.973L674.088 226.246L422.217 272.81ZM417.436 380.341V379.157L420.934 271.764L421.4 271.725L678.285 224.213L677.001 226.048L417.436 380.341Z" fill="#00BBC2" fill-opacity="0.17"/>
<path d="M204.746 336.638L97.7009 292.047L110.411 433.219L204.746 336.638ZM95.9517 290.074L97.1177 290.508L206.961 336.243L206.494 336.776L109.361 436.277L109.129 434.797L95.9517 290.074Z" fill="#00BBC2" fill-opacity="0.17"/>
<path d="M206.028 225.262L25.7549 260.876L205.212 335.457L206.028 225.262ZM21.4404 260.54L23.4227 260.086L207.428 223.743V224.472L206.611 337.391L205.562 336.937L21.4404 260.54Z" fill="#00BBC2" fill-opacity="0.17"/>
<path d="M207.428 225.263L206.612 335.023L315.989 249.432L207.428 225.263ZM205.213 337.825V336.346L206.029 223.684L318.904 248.84L317.855 249.59L205.213 337.825Z" fill="#00BBC2" fill-opacity="0.17"/>
<path d="M317.387 250.021L207.311 336.046L416.619 378.23L317.387 250.021ZM204.396 336.737L205.445 335.947L317.504 248.245L318.203 248.877L419.651 380.045L417.902 379.749L204.396 336.737Z" fill="#00BBC2" fill-opacity="0.17"/>
<path d="M1278.92 175.64L963.268 137.62L1010.96 343.25L1278.92 175.64ZM961.519 136.14L962.45 136.276L1282.77 174.949L1281.25 175.837L1009.91 345.381L1009.68 344.434L961.519 136.14Z" fill="#00BBC2" fill-opacity="0.17"/>
<path d="M-92.4842 284.119V348.184L-58.6682 402.049L22.14 261.567L-92.4842 284.119ZM-94 348.48V283.231L-93.4167 283.073L24.822 259.791L24.1223 260.936L-58.6682 404.712L-59.3679 403.686L-94 348.48Z" fill="#00BBC2" fill-opacity="0.17"/>
<path d="M23.7725 261.431L-56.5693 401.005L95.6019 291.205L23.7725 261.431ZM-60.7671 405.701L-59.3678 403.136L22.9563 260.031L23.8891 260.09L98.1673 290.909L97.3511 291.521L-60.7671 405.701Z" fill="#00BBC2" fill-opacity="0.17"/>
<path d="M216.989 223.878L208.127 231.474L199.148 223.878L208.127 216.282L216.989 223.878Z" fill="#00BBC2" fill-opacity="0.17"/>
<path d="M214.075 337.036L205.096 344.632L196.118 337.036L205.096 329.479L214.075 337.036Z" fill="#00BBC2" fill-opacity="0.17"/>
<path d="M120.438 433.856L111.46 441.512L102.481 433.856L111.46 426.32L120.438 433.856Z" fill="#00BBC2" fill-opacity="0.17"/>
<path d="M287.07 471.148L278.091 478.803L269.112 471.148L278.091 463.611L287.07 471.148Z" fill="#00BBC2" fill-opacity="0.17"/>
<path d="M326.715 248.054L317.736 255.65L308.874 248.054L317.736 240.458L326.715 248.054Z" fill="#00BBC2" fill-opacity="0.17"/>
<path d="M431.195 273.047L422.216 280.604L413.238 273.047L422.216 265.51L431.195 273.047Z" fill="#00BBC2" fill-opacity="0.17"/>
<path d="M426.765 378.664L417.786 386.261L408.808 378.664L417.786 371.068L426.765 378.664Z" fill="#00BBC2" fill-opacity="0.17"/>
<path d="M489.147 565.612L480.169 573.149L471.19 565.612L480.169 558.016L489.147 565.612Z" fill="#00BBC2" fill-opacity="0.17"/>
<path d="M340.592 566.443L331.613 574L322.634 566.443L331.613 558.907L340.592 566.443Z" fill="#00BBC2" fill-opacity="0.17"/>
<path d="M194.833 565.75L187.37 572.123L179.791 565.75L187.37 559.396L194.833 565.75Z" fill="#00BBC2" fill-opacity="0.17"/>
<path d="M38.2327 564.566L30.7699 570.938L23.3071 564.566L30.7699 558.311L38.2327 564.566Z" fill="#00BBC2" fill-opacity="0.17"/>
<path d="M753.964 566.796L746.382 573.149L738.919 566.796L746.382 560.482L753.964 566.796Z" fill="#00BBC2" fill-opacity="0.17"/>
<path d="M912.897 517.14L905.434 523.493L897.972 517.14L905.434 510.865L912.897 517.14Z" fill="#00BBC2" fill-opacity="0.17"/>
<path d="M1029.85 566.796L1022.39 573.149L1014.93 566.796L1022.39 560.482L1029.85 566.796Z" fill="#00BBC2" fill-opacity="0.17"/>
<path d="M1252.8 565.973L1245.34 572.326L1237.88 565.973L1245.34 559.699L1252.8 565.973Z" fill="#00BBC2" fill-opacity="0.17"/>
<path d="M1106.7 508.097L1099.23 514.411L1091.77 508.097L1099.23 501.783L1106.7 508.097Z" fill="#00BBC2" fill-opacity="0.17"/>
<path d="M686.798 225.266L677.932 232.862L668.953 225.266L677.932 217.669L686.798 225.266Z" fill="#00BBC2" fill-opacity="0.17"/>
<path d="M1020.64 345.223L1011.66 352.78L1002.69 345.223L1011.66 337.627L1020.64 345.223Z" fill="#00BBC2" fill-opacity="0.17"/>
<path d="M1359.49 417.336L1350.52 424.893L1341.54 417.336L1350.52 409.68L1359.49 417.336Z" fill="#00BBC2" fill-opacity="0.17"/>
<path d="M106.445 289.841L97.4664 297.417L88.4878 289.841L97.4664 282.284L106.445 289.841Z" fill="#00BBC2" fill-opacity="0.17"/>
<path d="M32.0516 260.539L23.1895 268.136L14.0942 260.539L23.1895 252.943L32.0516 260.539Z" fill="#00BBC2" fill-opacity="0.17"/>
<path d="M464.078 34.0756L455.099 41.6724L446.121 34.0756L455.099 26.4789L464.078 34.0756Z" fill="#00BBC2" fill-opacity="0.17"/>
<path d="M972.481 137.463L963.502 145.055L954.522 137.463L963.502 129.902L972.481 137.463Z" fill="#00BBC2" fill-opacity="0.17"/>
<path d="M1289.3 176.432L1280.44 184.028L1271.46 176.432L1280.44 168.836L1289.3 176.432Z" fill="#00BBC2" fill-opacity="0.17"/>
<path d="M1098.53 508.336L1098.18 508.495V509.383L1099.58 510.211V509.284L1347.37 418.267L1244.41 565.615H1243.59L1245.34 566.601L1349.7 417.241L1350.87 415.702L1098.53 508.336Z" fill="#00BBC2" fill-opacity="0.17"/>
<path d="M1245.23 565.121L1099.81 508.495L1099 509.481L1245.34 566.601L1245.23 565.121Z" fill="#00BBC2" fill-opacity="0.17"/>
</svg>
